<svg width="142" height="142" viewBox="0 0 142 142" fill="none" xmlns="http://www.w3.org/2000/svg">
<g clip-path="url(#clip0_37_48)">
<path d="M75.9045 82.979V78.3964C75.9045 76.6814 74.5269 75.3038 72.8119 75.3038H69.6631C68.3418 75.3038 67.161 74.4885 66.7392 73.2515C66.4581 72.3799 66.0926 71.5365 65.699 70.6931C65.1086 69.5123 65.3898 68.1066 66.3175 67.1788L68.5386 64.9578C69.7475 63.7488 69.7475 61.7808 68.5386 60.5719L66.6549 58.6883C65.446 57.4794 63.478 57.4794 62.2691 58.6883L60.048 60.9093C59.1203 61.8371 57.7146 62.0901 56.5338 61.5278C55.7184 61.1061 54.8469 60.7687 53.9754 60.4876C52.7383 60.0659 51.923 58.8851 51.923 57.5637V54.4149C51.923 52.6999 50.5454 51.3223 48.8304 51.3223H46.1877C44.4727 51.3223 43.0951 52.6999 43.0951 54.4149V57.5637C43.0951 58.8851 42.2798 60.0659 41.0428 60.4876C40.1712 60.7687 39.3278 61.1342 38.4844 61.5278C37.3036 62.1182 35.8979 61.8371 34.9701 60.9093L32.7491 58.6883C31.5402 57.4794 29.5722 57.4794 28.3632 58.6883L26.4796 60.5719C25.2707 61.7808 25.2707 63.7488 26.4796 64.9578L28.7006 67.1788C29.6284 68.1066 29.8814 69.5123 29.3191 70.6931C28.8974 71.5084 28.56 72.3799 28.2789 73.2515C27.8572 74.4885 26.6764 75.3038 25.355 75.3038H22.2062C20.4912 75.3038 19.1136 76.6814 19.1136 78.3964V82.979H75.9045Z" fill="#AAB1BA"/>
<path d="M75.9042 84.385H19.1134C18.3262 84.385 17.7076 83.7665 17.7076 82.9793V78.3967C17.7076 75.9226 19.7319 73.8984 22.2059 73.8984H25.3547C26.0857 73.8984 26.7042 73.4485 26.9291 72.8019C27.2384 71.8741 27.632 70.9464 28.0537 70.0748C28.363 69.4563 28.2224 68.6972 27.7163 68.1912L25.4953 65.9701C24.6519 65.1267 24.1739 64.0021 24.1739 62.7932C24.1739 61.5843 24.6519 60.4597 25.4953 59.6163L27.379 57.7327C29.122 55.9896 31.9897 55.9896 33.7328 57.7327L35.9538 59.9537C36.4599 60.4597 37.219 60.6003 37.8375 60.2911C38.709 59.8693 39.6368 59.4757 40.5646 59.1665C41.2393 58.9416 41.661 58.2949 41.661 57.5921V54.4433C41.661 51.9692 43.6852 49.945 46.1593 49.945H48.802C51.2761 49.945 53.3003 51.9692 53.3003 54.4433V57.5921C53.3003 58.3231 53.7502 58.9416 54.3968 59.1665C55.3246 59.4757 56.2523 59.8693 57.1239 60.2911C57.7424 60.6003 58.5015 60.4597 59.0075 59.9537L61.2286 57.7327C62.9716 55.9896 65.8393 55.9896 67.5824 57.7327L69.466 59.6163C71.2091 61.3594 71.2091 64.2271 69.466 65.9701L67.245 68.1912C66.739 68.6972 66.5984 69.4563 66.9076 70.0748C67.3294 70.9464 67.723 71.8741 68.0322 72.8019C68.2571 73.4767 68.9038 73.8984 69.6066 73.8984H72.8116C75.2857 73.8984 77.3099 75.9226 77.3099 78.3967V82.9793C77.3099 83.7384 76.6914 84.385 75.9042 84.385ZM20.5191 81.5736H74.4985V78.3967C74.4985 77.4689 73.7394 76.7098 72.8116 76.7098H69.6628C67.723 76.7098 66.008 75.5009 65.4176 73.6735C65.1364 72.8581 64.8272 72.0709 64.4336 71.3119C63.5902 69.5969 63.9275 67.5445 65.3051 66.167L67.5262 63.9459C68.1728 63.2993 68.1728 62.2028 67.5262 61.5562L65.6425 59.6725C64.9959 59.0259 63.8994 59.0259 63.2528 59.6725L61.0318 61.8936C59.6542 63.2712 57.6018 63.6085 55.8868 62.7651C55.1278 62.3996 54.3406 62.0623 53.5252 61.7811C51.7259 61.1626 50.4889 59.4757 50.4889 57.5359V54.3871C50.4889 53.4593 49.7298 52.7002 48.802 52.7002H46.1593C45.2315 52.7002 44.4724 53.4593 44.4724 54.3871V57.5359C44.4724 59.4757 43.2635 61.1907 41.4361 61.7811C40.6208 62.0623 39.8336 62.3715 39.0745 62.7651C37.3595 63.6085 35.3072 63.2712 33.9296 61.8936L31.7086 59.6725C31.0619 59.0259 29.9655 59.0259 29.3188 59.6725L27.4352 61.5562C27.1259 61.8655 26.9291 62.2872 26.9291 62.737C26.9291 63.1868 27.0978 63.6085 27.4352 63.9178L29.6562 66.1388C31.0338 67.5164 31.3712 69.5688 30.5278 71.2837C30.1623 72.0428 29.8249 72.83 29.5438 73.6453C28.9252 75.4447 27.2384 76.6817 25.2985 76.6817H22.2059C21.2782 76.6817 20.5191 77.4408 20.5191 78.3686V81.5736Z" fill="#1C1D21"/>
<path d="M36.5725 82.9791C36.5725 76.9345 41.4925 72.0145 47.5371 72.0145C53.5817 72.0145 58.5017 76.9345 58.5017 82.9791H36.5725Z" fill="#FDDF7F"/>
<path d="M58.4735 84.3846H36.5725C35.7853 84.3846 35.1667 83.7661 35.1667 82.9789C35.1667 76.1753 40.7053 70.6086 47.537 70.6086C54.3407 70.6086 59.9073 76.1472 59.9073 82.9789C59.8792 83.738 59.2326 84.3846 58.4735 84.3846ZM38.0625 81.5732H56.9553C56.2806 76.9625 52.2884 73.4201 47.5089 73.4201C42.7295 73.4201 38.7654 76.9625 38.0625 81.5732Z" fill="#1C1D21"/>
<path d="M12.085 95.3208V124.56C12.085 127.652 14.6152 130.183 17.7078 130.183H124.542C127.635 130.183 130.165 127.652 130.165 124.56V95.3208H12.085ZM130.165 36.8431V18.4001C130.165 15.3076 127.635 12.7773 124.542 12.7773H17.7078C14.6152 12.7773 12.085 15.3076 12.085 18.4001V36.8431H130.165Z" fill="#83E1E5"/>
<path d="M131.571 141.429H10.6792C5.25318 141.429 0.839233 137.015 0.839233 131.589V10.6972C0.839233 5.27112 5.25318 0.857178 10.6792 0.857178H131.571C136.997 0.857178 141.411 5.27112 141.411 10.6972V131.589C141.411 137.015 136.997 141.429 131.571 141.429ZM10.6792 3.66861C6.79946 3.66861 3.65066 6.81741 3.65066 10.6972V131.589C3.65066 135.468 6.79946 138.617 10.6792 138.617H131.571C135.45 138.617 138.599 135.468 138.599 131.589V10.6972C138.599 6.81741 135.45 3.66861 131.571 3.66861H10.6792Z" fill="#1C1D21"/>
<path d="M12.0849 28.3243C11.2977 28.3243 10.6792 27.7058 10.6792 26.9186V18.4C10.6792 14.5202 13.828 11.3714 17.7078 11.3714H18.9167C19.7039 11.3714 20.3224 11.9899 20.3224 12.7771C20.3224 13.5643 19.7039 14.1828 18.9167 14.1828H17.7078C15.3743 14.1828 13.4906 16.0665 13.4906 18.4V26.9186C13.4906 27.6777 12.8721 28.3243 12.0849 28.3243ZM30.0781 14.1828H25.8609C25.0737 14.1828 24.4552 13.5643 24.4552 12.7771C24.4552 11.9899 25.0737 11.3714 25.8609 11.3714H30.0781C30.8653 11.3714 31.4838 11.9899 31.4838 12.7771C31.4838 13.5362 30.8653 14.1828 30.0781 14.1828ZM124.542 131.588H123.333C122.546 131.588 121.927 130.97 121.927 130.182C121.927 129.395 122.546 128.777 123.333 128.777H124.542C126.876 128.777 128.759 126.893 128.759 124.56V116.041C128.759 115.254 129.378 114.635 130.165 114.635C130.952 114.635 131.571 115.254 131.571 116.041V124.56C131.571 128.439 128.422 131.588 124.542 131.588ZM116.389 131.588H112.172C111.385 131.588 110.766 130.97 110.766 130.182C110.766 129.395 111.385 128.777 112.172 128.777H116.389C117.176 128.777 117.795 129.395 117.795 130.182C117.795 130.97 117.176 131.588 116.389 131.588Z" fill="#1C1D21"/>
<path d="M36.9099 104.402H23.2464C21.7001 104.402 20.4349 105.667 20.4349 107.213V116.575C20.4349 118.121 21.7001 119.387 23.2464 119.387H36.938C38.4843 119.387 39.7495 118.121 39.7495 116.575V107.213C39.7213 105.667 38.4843 104.402 36.9099 104.402ZM64.2932 104.402H50.6016C49.0553 104.402 47.7901 105.667 47.7901 107.213V116.575C47.7901 118.121 49.0553 119.387 50.6016 119.387H64.2932C65.8395 119.387 67.1047 118.121 67.1047 116.575V107.213C67.1047 105.667 65.8395 104.402 64.2932 104.402ZM91.6484 104.402H77.9568C76.4105 104.402 75.1453 105.667 75.1453 107.213V116.575C75.1453 118.121 76.4105 119.387 77.9568 119.387H91.6484C93.1947 119.387 94.4598 118.121 94.4598 116.575V107.213C94.4598 105.667 93.1947 104.402 91.6484 104.402ZM119.004 104.402H105.312C103.766 104.402 102.501 105.667 102.501 107.213V116.575C102.501 118.121 103.766 119.387 105.312 119.387H119.004C120.55 119.387 121.815 118.121 121.815 116.575V107.213C121.815 105.667 120.578 104.402 119.004 104.402Z" fill="white"/>
<path d="M125.948 98.0483H16.3021C13.2095 98.0483 10.6792 95.518 10.6792 92.4254V40.3016C10.6792 37.209 13.2095 34.6787 16.3021 34.6787H125.948C129.04 34.6787 131.571 37.209 131.571 40.3016V92.4254C131.571 95.5461 129.04 98.0483 125.948 98.0483ZM16.3021 37.4901C14.7558 37.4901 13.4906 38.7553 13.4906 40.3016V92.4254C13.4906 93.9717 14.7558 95.2369 16.3021 95.2369H125.948C127.494 95.2369 128.759 93.9717 128.759 92.4254V40.3016C128.759 38.7553 127.494 37.4901 125.948 37.4901H16.3021Z" fill="#1C1D21"/>
<path d="M12.085 82.9509V92.4254C12.085 94.7589 13.9686 96.6426 16.3021 96.6426H125.948C128.281 96.6426 130.165 94.7589 130.165 92.4254V82.9509H12.085Z" fill="#FDDF7F"/>
<path d="M125.948 98.0481H16.3021C13.2095 98.0481 10.6792 95.5178 10.6792 92.4253V82.9508C10.6792 82.1636 11.2977 81.545 12.0849 81.545H130.165C130.952 81.545 131.571 82.1636 131.571 82.9508V92.4253C131.571 95.546 129.04 98.0481 125.948 98.0481ZM13.4906 84.3565V92.4253C13.4906 93.9716 14.7558 95.2367 16.3021 95.2367H125.948C127.494 95.2367 128.759 93.9716 128.759 92.4253V84.3565H13.4906Z" fill="#1C1D21"/>
<path d="M121.815 52.7279H82.4548C81.6676 52.7279 81.0491 52.1094 81.0491 51.3222C81.0491 50.535 81.6676 49.9164 82.4548 49.9164H121.815C122.602 49.9164 123.221 50.535 123.221 51.3222C123.221 52.1094 122.602 52.7279 121.815 52.7279ZM121.815 63.7768H82.4548C81.6676 63.7768 81.0491 63.1583 81.0491 62.3711C81.0491 61.5839 81.6676 60.9654 82.4548 60.9654H121.815C122.602 60.9654 123.221 61.5839 123.221 62.3711C123.221 63.1583 122.602 63.7768 121.815 63.7768ZM121.815 74.8538H82.4548C81.6676 74.8538 81.0491 74.2353 81.0491 73.4481C81.0491 72.6609 81.6676 72.0424 82.4548 72.0424H121.815C122.602 72.0424 123.221 72.6609 123.221 73.4481C123.221 74.2072 122.602 74.8538 121.815 74.8538Z" fill="#1C1D21"/>
</g>
<defs>
<clipPath id="clip0_37_48">
<rect width="140.571" height="140.571" fill="white" transform="translate(0.839233 0.857178)"/>
</clipPath>
</defs>
</svg>
