<?xml version="1.0" encoding="UTF-8"?>
<svg xmlns="http://www.w3.org/2000/svg" width="80" height="80" viewBox="0 0 80 80" fill="none">
  <rect width="80" height="80" rx="40" fill="url(#paint0_linear_459_1813)"></rect>
  <g clip-path="url(#clip0_459_1813)">
    <path d="M38.6667 40C39.0203 40 39.3594 40.1405 39.6095 40.3905C39.8595 40.6406 40 40.9797 40 41.3333C40 41.687 39.8595 42.0261 39.6095 42.2761C39.3594 42.5262 39.0203 42.6667 38.6667 42.6667H34.6667C34.313 42.6667 33.9739 42.5262 33.7239 42.2761C33.4738 42.0261 33.3333 41.687 33.3333 41.3333C33.3333 40.9797 33.4738 40.6406 33.7239 40.3905C33.9739 40.1405 34.313 40 34.6667 40H38.6667ZM46.6667 36C46.6667 35.6464 46.5262 35.3072 46.2761 35.0572C46.0261 34.8071 45.687 34.6667 45.3333 34.6667H34.6667C34.313 34.6667 33.9739 34.8071 33.7239 35.0572C33.4738 35.3072 33.3333 35.6464 33.3333 36C33.3333 36.3536 33.4738 36.6928 33.7239 36.9428C33.9739 37.1929 34.313 37.3333 34.6667 37.3333H45.3333C45.687 37.3333 46.0261 37.1929 46.2761 36.9428C46.5262 36.6928 46.6667 36.3536 46.6667 36ZM34.6667 32H45.3333C45.687 32 46.0261 31.8595 46.2761 31.6095C46.5262 31.3594 46.6667 31.0203 46.6667 30.6667C46.6667 30.313 46.5262 29.9739 46.2761 29.7239C46.0261 29.4738 45.687 29.3333 45.3333 29.3333H34.6667C34.313 29.3333 33.9739 29.4738 33.7239 29.7239C33.4738 29.9739 33.3333 30.313 33.3333 30.6667C33.3333 31.0203 33.4738 31.3594 33.7239 31.6095C33.9739 31.8595 34.313 32 34.6667 32ZM50.6667 49.9253V55.036C50.6668 55.2262 50.6104 55.4122 50.5048 55.5703C50.3992 55.7285 50.249 55.8518 50.0733 55.9246C49.8976 55.9974 49.7042 56.0164 49.5177 55.9793C49.3311 55.9422 49.1598 55.8505 49.0253 55.716L48 54.692L46.9747 55.716C46.8402 55.8505 46.6689 55.9422 46.4823 55.9793C46.2958 56.0164 46.1024 55.9974 45.9267 55.9246C45.751 55.8518 45.6008 55.7285 45.4952 55.5703C45.3896 55.4122 45.3332 55.2262 45.3333 55.036V49.9253C44.3165 49.3411 43.5213 48.437 43.0718 47.3538C42.6222 46.2706 42.5434 45.0692 42.8477 43.9366C43.152 42.804 43.8223 41.8038 44.7542 41.0918C45.6861 40.3798 46.8272 39.996 48 40C48.4507 40.0056 48.8989 40.0693 49.3333 40.1893V30.6667C49.3333 29.6058 48.9119 28.5884 48.1618 27.8382C47.4116 27.0881 46.3942 26.6667 45.3333 26.6667H34.6667C33.6058 26.6667 32.5884 27.0881 31.8382 27.8382C31.0881 28.5884 30.6667 29.6058 30.6667 30.6667V46.6667C30.6667 47.7275 31.0881 48.7449 31.8382 49.4951C32.5884 50.2452 33.6058 50.6667 34.6667 50.6667H41.3333C41.687 50.6667 42.0261 50.8071 42.2761 51.0572C42.5262 51.3072 42.6667 51.6464 42.6667 52C42.6667 52.3536 42.5262 52.6928 42.2761 52.9428C42.0261 53.1929 41.687 53.3333 41.3333 53.3333H34.6667C32.8992 53.3312 31.2047 52.6282 29.955 51.3784C28.7052 50.1286 28.0021 48.4341 28 46.6667V30.6667C28.0021 28.8992 28.7052 27.2047 29.955 25.955C31.2047 24.7052 32.8992 24.0021 34.6667 24H45.3333C47.1008 24.0021 48.7953 24.7052 50.045 25.955C51.2948 27.2047 51.9979 28.8992 52 30.6667V41.8427C52.5223 42.4292 52.9068 43.1251 53.1254 43.8794C53.3439 44.6338 53.391 45.4275 53.2632 46.2024C53.1354 46.9772 52.8358 47.7137 52.3866 48.3579C51.9373 49.0021 51.3497 49.5376 50.6667 49.9253ZM50.6667 45.3333C50.6667 44.8059 50.5103 44.2903 50.2173 43.8518C49.9242 43.4133 49.5078 43.0715 49.0205 42.8697C48.5332 42.6678 47.997 42.615 47.4798 42.7179C46.9625 42.8208 46.4873 43.0748 46.1144 43.4477C45.7414 43.8207 45.4875 44.2958 45.3846 44.8131C45.2817 45.3304 45.3345 45.8666 45.5363 46.3538C45.7382 46.8411 46.0799 47.2576 46.5185 47.5506C46.957 47.8436 47.4726 48 48 48C48.7072 48 49.3855 47.719 49.8856 47.219C50.3857 46.7189 50.6667 46.0406 50.6667 45.3333Z" fill="#6060E4"></path>
  </g>
  <defs>
    <linearGradient id="paint0_linear_459_1813" x1="8" y1="16.5" x2="62" y2="70.5" gradientUnits="userSpaceOnUse">
      <stop stop-color="#EBEBFF"></stop>
      <stop offset="1" stop-color="#EBEBFF" stop-opacity="0.1"></stop>
    </linearGradient>
    <clipPath id="clip0_459_1813">
      <rect width="32" height="32" fill="white" transform="translate(24 24)"></rect>
    </clipPath>
  </defs>
</svg>
