<svg width="126" height="127" viewBox="0 0 126 127" fill="none" xmlns="http://www.w3.org/2000/svg">
<g clip-path="url(#clip0_36_23)">
<path d="M123.972 22.3753V120.185C123.969 121.222 123.556 122.215 122.823 122.948C122.09 123.681 121.097 124.094 120.06 124.097H6.60074C5.56407 124.094 4.57073 123.681 3.83769 122.948C3.10464 122.215 2.69145 121.222 2.68835 120.185V22.3753H123.972Z" fill="#DFE1EA"/>
<path d="M120.06 2.81335C121.097 2.81645 122.09 3.22964 122.823 3.96269C123.556 4.69573 123.969 5.68907 123.972 6.72574V22.3753H2.68835V6.72574C2.69145 5.68907 3.10464 4.69573 3.83769 3.96269C4.57073 3.22964 5.56407 2.81645 6.60074 2.81335H120.06Z" fill="#ADB2C7"/>
<path d="M78.1974 41.9373C63.3304 41.9373 63.3304 38.025 48.4633 38.025C33.5962 38.025 33.5962 41.9373 18.7291 41.9373C13.2972 42.021 7.88544 41.2581 2.68835 39.676V55.3255C7.88544 56.9076 13.2972 57.6706 18.7291 57.5869C33.5962 57.5869 33.5962 53.6745 48.4633 53.6745C63.3304 53.6745 63.3304 57.5869 78.1974 57.5869C93.0645 57.5869 93.0645 53.6745 107.932 53.6745C113.364 53.5929 118.775 54.3565 123.972 55.9378V40.2883C118.775 38.7069 113.364 37.9433 107.932 38.025C93.0645 38.025 93.0645 41.9373 78.1974 41.9373Z" fill="#CDD2E1"/>
<path d="M2.68835 22.3753V39.6759C7.88544 41.258 13.2972 42.0209 18.7291 41.9372C33.5962 41.9372 33.5962 38.0249 48.4633 38.0249C63.3304 38.0249 63.3304 41.9372 78.1974 41.9372C93.0645 41.9372 93.0645 38.0249 107.932 38.0249C113.364 37.9432 118.775 38.7068 123.972 40.2882V22.3753H2.68835Z" fill="#F6FAFD"/>
<path d="M119.898 32.1562H14.5878C13.4177 32.1562 12.4692 33.1048 12.4692 34.2748V69.1616C12.4692 70.3316 13.4177 71.2801 14.5878 71.2801H119.898C121.068 71.2801 122.016 70.3316 122.016 69.1616V34.2748C122.016 33.1048 121.068 32.1562 119.898 32.1562Z" fill="#BEC3D2"/>
<path d="M55.891 75.1925H31.6459C30.7784 75.1925 30.0751 75.8958 30.0751 76.7633V95.1398C30.0751 96.0074 30.7784 96.7106 31.6459 96.7106H55.891C56.7585 96.7106 57.4618 96.0074 57.4618 95.1398V76.7633C57.4618 75.8958 56.7585 75.1925 55.891 75.1925Z" fill="#BEC3D2"/>
<path d="M79.4435 81.0611H47.2172C46.3929 81.0611 45.7246 81.7293 45.7246 82.5537V112.824C45.7246 113.648 46.3929 114.316 47.2172 114.316H79.4435C80.2679 114.316 80.9361 113.648 80.9361 112.824V82.5537C80.9361 81.7293 80.2679 81.0611 79.4435 81.0611Z" fill="#BEC3D2"/>
<path d="M84.8485 75.1925H116.148V86.9297H84.8485V75.1925Z" fill="#8DD5F6"/>
<path d="M75.0675 77.1487V108.448H43.7684L75.0675 77.1487Z" fill="white"/>
<path d="M55.5056 88.8859V77.1487H75.0675L43.7684 108.448V88.8859H55.5056Z" fill="#DFE1EA"/>
<path d="M55.5055 77.1487V88.8859H24.2064L55.5055 57.5868V77.1487Z" fill="white"/>
<path d="M55.5055 57.5868L24.2064 88.8859V57.5868H55.5055Z" fill="#DFE1EA"/>
<path d="M116.148 30.2001V65.4116H55.5055V57.5868H24.2064V65.4116H10.5131V30.2001H116.148Z" fill="#FFC247"/>
<path d="M10.5131 30.2001V41.4091C13.2353 41.7839 15.9812 41.9605 18.7291 41.9372C33.5962 41.9372 33.5962 38.0248 48.4632 38.0248C63.3303 38.0248 63.3303 41.9372 78.1974 41.9372C93.0645 41.9372 93.0645 38.0248 107.932 38.0248C110.679 38.0018 113.425 38.179 116.148 38.555V30.2001H10.5131Z" fill="#FFA426"/>
<path d="M84.8484 75.1925H96.5856V86.9297H84.8484V75.1925ZM10.5131 10.6381H14.4254V14.5505H10.5131V10.6381ZM28.1188 10.6381H116.148V14.5505H28.1188V10.6381Z" fill="white"/>
<path d="M120.06 0.857178H6.60064C5.04419 0.857178 3.5515 1.47547 2.45092 2.57605C1.35035 3.67662 0.732056 5.16932 0.732056 6.72576L0.732056 120.185C0.732056 121.741 1.35035 123.234 2.45092 124.335C3.5515 125.435 5.04419 126.054 6.60064 126.054H120.06C121.616 126.054 123.109 125.435 124.21 124.335C125.31 123.234 125.928 121.741 125.928 120.185V6.72576C125.928 5.16932 125.31 3.67662 124.21 2.57605C123.109 1.47547 121.616 0.857178 120.06 0.857178ZM6.60064 4.76957H120.06C120.579 4.76957 121.076 4.97566 121.443 5.34252C121.81 5.70938 122.016 6.20695 122.016 6.72576V20.4191H4.64444V6.72576C4.64444 6.20695 4.85054 5.70938 5.2174 5.34252C5.58426 4.97566 6.08182 4.76957 6.60064 4.76957ZM120.06 122.141H6.60064C6.08182 122.141 5.58426 121.935 5.2174 121.568C4.85054 121.201 4.64444 120.704 4.64444 120.185V24.3315H122.016V120.185C122.016 120.704 121.81 121.201 121.443 121.568C121.076 121.935 120.579 122.141 120.06 122.141Z" fill="black"/>
<path d="M18.3379 10.6381H22.2502V14.5505H18.3379V10.6381ZM116.148 28.2439H10.5131C9.99426 28.2439 9.4967 28.45 9.12984 28.8168C8.76298 29.1837 8.55688 29.6812 8.55688 30.2001V65.4116C8.55688 65.9304 8.76298 66.4279 9.12984 66.7948C9.4967 67.1617 9.99426 67.3678 10.5131 67.3678H22.2502V88.8859C22.2502 89.4047 22.4563 89.9023 22.8232 90.2691C23.1901 90.636 23.6876 90.8421 24.2064 90.8421H41.8122V108.448C41.8122 108.967 42.0183 109.464 42.3851 109.831C42.752 110.198 43.2496 110.404 43.7684 110.404H75.0675C75.5863 110.404 76.0839 110.198 76.4507 109.831C76.8176 109.464 77.0237 108.967 77.0237 108.448V77.1487C77.0237 76.6299 76.8176 76.1323 76.4507 75.7655C76.0839 75.3986 75.5863 75.1925 75.0675 75.1925H57.4617V67.3678H116.148C116.666 67.3678 117.164 67.1617 117.531 66.7948C117.898 66.4279 118.104 65.9304 118.104 65.4116V30.2001C118.104 29.6812 117.898 29.1837 117.531 28.8168C117.164 28.45 116.666 28.2439 116.148 28.2439ZM26.1626 84.1636V59.543H50.7833L26.1626 84.1636ZM53.5494 62.309V86.9297H28.9287L53.5494 62.309ZM48.4906 106.492L73.1113 81.871V106.492H48.4906ZM70.3452 79.1049L45.7246 103.726V90.8421H55.5055C56.0244 90.8421 56.5219 90.636 56.8888 90.2691C57.2556 89.9023 57.4617 89.4047 57.4617 88.8859V79.1049H70.3452ZM114.191 63.4554H57.4617V57.5868C57.4617 57.068 57.2556 56.5704 56.8888 56.2035C56.5219 55.8367 56.0244 55.6306 55.5055 55.6306H24.2064C23.6876 55.6306 23.1901 55.8367 22.8232 56.2035C22.4563 56.5704 22.2502 57.068 22.2502 57.5868V63.4554H12.4693V32.1563H114.191V63.4554Z" fill="black"/>
<path d="M116.148 73.2363H84.8485C84.3297 73.2363 83.8321 73.4424 83.4653 73.8093C83.0984 74.1761 82.8923 74.6737 82.8923 75.1925V86.9297C82.8923 87.4485 83.0984 87.9461 83.4653 88.3129C83.8321 88.6798 84.3297 88.8859 84.8485 88.8859H116.148C116.666 88.8859 117.164 88.6798 117.531 88.3129C117.898 87.9461 118.104 87.4485 118.104 86.9297V75.1925C118.104 74.6737 117.898 74.1761 117.531 73.8093C117.164 73.4424 116.666 73.2363 116.148 73.2363ZM114.191 84.9735H86.8047V77.1487H114.191V84.9735ZM84.8485 110.404H116.148V114.316H84.8485V110.404ZM84.8485 102.579H116.148V106.492H84.8485V102.579ZM106.367 94.7545H116.148V98.6669H106.367V94.7545ZM92.6733 94.7545H102.454V98.6669H92.6733V94.7545Z" fill="black"/>
</g>
<defs>
<clipPath id="clip0_36_23">
<rect width="125.196" height="125.196" fill="white" transform="translate(0.732056 0.857178)"/>
</clipPath>
</defs>
</svg>
