<?xml version="1.0" encoding="UTF-8"?>
<svg xmlns="http://www.w3.org/2000/svg" width="80" height="80" viewBox="0 0 80 80" fill="none">
  <rect width="80" height="80" rx="40" fill="url(#paint0_linear_459_1823)"></rect>
  <g clip-path="url(#clip0_459_1823)">
    <path d="M49.3333 25.3333H30.6667C28.8992 25.3354 27.2047 26.0385 25.955 27.2883C24.7052 28.5381 24.0021 30.2325 24 32V48C24.0021 49.7674 24.7052 51.4619 25.955 52.7117C27.2047 53.9615 28.8992 54.6645 30.6667 54.6666H49.3333C51.1008 54.6645 52.7953 53.9615 54.045 52.7117C55.2948 51.4619 55.9979 49.7674 56 48V32C55.9979 30.2325 55.2948 28.5381 54.045 27.2883C52.7953 26.0385 51.1008 25.3354 49.3333 25.3333ZM30.6667 28H49.3333C50.3942 28 51.4116 28.4214 52.1618 29.1716C52.9119 29.9217 53.3333 30.9391 53.3333 32V33.3333H26.6667V32C26.6667 30.9391 27.0881 29.9217 27.8382 29.1716C28.5884 28.4214 29.6058 28 30.6667 28ZM49.3333 52H30.6667C29.6058 52 28.5884 51.5786 27.8382 50.8284C27.0881 50.0783 26.6667 49.0608 26.6667 48V36H53.3333V48C53.3333 49.0608 52.9119 50.0783 52.1618 50.8284C51.4116 51.5786 50.3942 52 49.3333 52ZM49.3333 41.3333C49.3333 41.6869 49.1929 42.0261 48.9428 42.2761C48.6928 42.5262 48.3536 42.6666 48 42.6666H32C31.6464 42.6666 31.3072 42.5262 31.0572 42.2761C30.8071 42.0261 30.6667 41.6869 30.6667 41.3333C30.6667 40.9797 30.8071 40.6406 31.0572 40.3905C31.3072 40.1405 31.6464 40 32 40H48C48.3536 40 48.6928 40.1405 48.9428 40.3905C49.1929 40.6406 49.3333 40.9797 49.3333 41.3333ZM44 46.6666C44 47.0203 43.8595 47.3594 43.6095 47.6095C43.3594 47.8595 43.0203 48 42.6667 48H32C31.6464 48 31.3072 47.8595 31.0572 47.6095C30.8071 47.3594 30.6667 47.0203 30.6667 46.6666C30.6667 46.313 30.8071 45.9739 31.0572 45.7238C31.3072 45.4738 31.6464 45.3333 32 45.3333H42.6667C43.0203 45.3333 43.3594 45.4738 43.6095 45.7238C43.8595 45.9739 44 46.313 44 46.6666ZM28 30.6666C28 30.4029 28.0782 30.1452 28.2247 29.9259C28.3712 29.7066 28.5795 29.5357 28.8231 29.4348C29.0667 29.3339 29.3348 29.3075 29.5935 29.3589C29.8521 29.4104 30.0897 29.5374 30.2761 29.7238C30.4626 29.9103 30.5896 30.1479 30.641 30.4065C30.6925 30.6652 30.6661 30.9333 30.5652 31.1769C30.4643 31.4205 30.2934 31.6288 30.0741 31.7753C29.8548 31.9218 29.597 32 29.3333 32C28.9797 32 28.6406 31.8595 28.3905 31.6095C28.1405 31.3594 28 31.0203 28 30.6666ZM32 30.6666C32 30.4029 32.0782 30.1452 32.2247 29.9259C32.3712 29.7066 32.5795 29.5357 32.8231 29.4348C33.0667 29.3339 33.3348 29.3075 33.5935 29.3589C33.8521 29.4104 34.0897 29.5374 34.2761 29.7238C34.4626 29.9103 34.5896 30.1479 34.641 30.4065C34.6925 30.6652 34.6661 30.9333 34.5652 31.1769C34.4643 31.4205 34.2934 31.6288 34.0741 31.7753C33.8548 31.9218 33.597 32 33.3333 32C32.9797 32 32.6406 31.8595 32.3905 31.6095C32.1405 31.3594 32 31.0203 32 30.6666ZM36 30.6666C36 30.4029 36.0782 30.1452 36.2247 29.9259C36.3712 29.7066 36.5795 29.5357 36.8231 29.4348C37.0667 29.3339 37.3348 29.3075 37.5935 29.3589C37.8521 29.4104 38.0897 29.5374 38.2761 29.7238C38.4626 29.9103 38.5896 30.1479 38.641 30.4065C38.6925 30.6652 38.6661 30.9333 38.5652 31.1769C38.4643 31.4205 38.2934 31.6288 38.0741 31.7753C37.8548 31.9218 37.597 32 37.3333 32C36.9797 32 36.6406 31.8595 36.3905 31.6095C36.1405 31.3594 36 31.0203 36 30.6666Z" fill="#ECAB2E"></path>
  </g>
  <defs>
    <linearGradient id="paint0_linear_459_1823" x1="-4" y1="36" x2="40" y2="80" gradientUnits="userSpaceOnUse">
      <stop stop-color="#FFF5D3"></stop>
      <stop offset="1" stop-color="#FFF5D3" stop-opacity="0.1"></stop>
    </linearGradient>
    <clipPath id="clip0_459_1823">
      <rect width="32" height="32" fill="white" transform="translate(24 24)"></rect>
    </clipPath>
  </defs>
</svg>
