<?xml version="1.0" encoding="UTF-8"?>
<svg xmlns="http://www.w3.org/2000/svg" width="80" height="80" viewBox="0 0 80 80" fill="none">
  <rect width="80" height="80" rx="40" fill="url(#paint0_linear_459_1804)"></rect>
  <g clip-path="url(#clip0_459_1804)">
    <path d="M49.3333 29.3333H47.8667C47.5572 27.8286 46.7384 26.4765 45.5483 25.505C44.3582 24.5335 42.8696 24.0019 41.3333 24H38.6667C37.1304 24.0019 35.6418 24.5335 34.4517 25.505C33.2616 26.4765 32.4428 27.8286 32.1333 29.3333H30.6667C28.8992 29.3355 27.2047 30.0385 25.955 31.2883C24.7052 32.5381 24.0021 34.2325 24 36V49.3333C24.0021 51.1008 24.7052 52.7953 25.955 54.045C27.2047 55.2948 28.8992 55.9979 30.6667 56H49.3333C51.1008 55.9979 52.7953 55.2948 54.045 54.045C55.2948 52.7953 55.9979 51.1008 56 49.3333V36C55.9979 34.2325 55.2948 32.5381 54.045 31.2883C52.7953 30.0385 51.1008 29.3355 49.3333 29.3333ZM38.6667 26.6667H41.3333C42.1577 26.6701 42.9608 26.9281 43.6329 27.4055C44.305 27.8828 44.8132 28.5561 45.088 29.3333H34.912C35.1868 28.5561 35.695 27.8828 36.3671 27.4055C37.0392 26.9281 37.8423 26.6701 38.6667 26.6667ZM30.6667 32H49.3333C50.3942 32 51.4116 32.4214 52.1618 33.1716C52.9119 33.9217 53.3333 34.9391 53.3333 36V40H26.6667V36C26.6667 34.9391 27.0881 33.9217 27.8382 33.1716C28.5884 32.4214 29.6058 32 30.6667 32ZM49.3333 53.3333H30.6667C29.6058 53.3333 28.5884 52.9119 27.8382 52.1618C27.0881 51.4116 26.6667 50.3942 26.6667 49.3333V42.6667H38.6667V44C38.6667 44.3536 38.8071 44.6928 39.0572 44.9428C39.3072 45.1929 39.6464 45.3333 40 45.3333C40.3536 45.3333 40.6928 45.1929 40.9428 44.9428C41.1929 44.6928 41.3333 44.3536 41.3333 44V42.6667H53.3333V49.3333C53.3333 50.3942 52.9119 51.4116 52.1618 52.1618C51.4116 52.9119 50.3942 53.3333 49.3333 53.3333Z" fill="#E35555"></path>
  </g>
  <defs>
    <linearGradient id="paint0_linear_459_1804" x1="3.5" y1="18.5" x2="59" y2="74" gradientUnits="userSpaceOnUse">
      <stop stop-color="#FFEDED"></stop>
      <stop offset="1" stop-color="#FFEDED" stop-opacity="0.1"></stop>
    </linearGradient>
    <clipPath id="clip0_459_1804">
      <rect width="32" height="32" fill="white" transform="translate(24 24)"></rect>
    </clipPath>
  </defs>
</svg>
